<svg width="32" height="32" viewBox="0 0 32 32" fill="none" xmlns="http://www.w3.org/2000/svg">
<path d="M14.1651 4.23147C14.8614 2.62571 17.1386 2.6257 17.8349 4.23146L19.8752 8.93645C20.165 9.60476 20.7952 10.0627 21.5203 10.1318L26.6255 10.6182C28.3679 10.7842 29.0716 12.95 27.7596 14.1084L23.9153 17.5027C23.3693 17.9849 23.1285 18.7258 23.2869 19.4368L24.4018 24.4424C24.7824 26.1508 22.9401 27.4893 21.4329 26.5995L17.0168 23.9923C16.3895 23.622 15.6105 23.622 14.9832 23.9923L10.5671 26.5995C9.05993 27.4893 7.21764 26.1508 7.59816 24.4424L8.71308 19.4368C8.87145 18.7258 8.63072 17.9849 8.08468 17.5027L4.24044 14.1084C2.92845 12.95 3.63214 10.7842 5.37448 10.6182L10.4797 10.1318C11.2048 10.0627 11.835 9.60476 12.1248 8.93645L14.1651 4.23147Z" fill="#CCCCCC"/>
</svg>
